<svg width="62" height="27" viewBox="0 0 62 27" fill="none" xmlns="http://www.w3.org/2000/svg">
<path d="M6.92188 21.2344C4.72396 21.2344 3.04688 20.5885 1.89062 19.2969C0.744792 18.0052 0.171875 16.1458 0.171875 13.7188C0.171875 11.3021 0.744792 9.45312 1.89062 8.17188C3.04688 6.89062 4.72396 6.25 6.92188 6.25C9.11979 6.25 10.7865 6.89062 11.9219 8.17188C13.0677 9.44271 13.6406 11.2917 13.6406 13.7188C13.6406 16.1458 13.0677 18.0052 11.9219 19.2969C10.7865 20.5885 9.11979 21.2344 6.92188 21.2344ZM6.92188 17.9688C7.79688 17.9688 8.4375 17.6146 8.84375 16.9062C9.26042 16.1979 9.46875 15.1354 9.46875 13.7188C9.46875 12.3125 9.26042 11.2552 8.84375 10.5469C8.4375 9.83854 7.79688 9.48438 6.92188 9.48438C5.19271 9.48438 4.32812 10.8958 4.32812 13.7188C4.32812 15.125 4.53646 16.1875 4.95312 16.9062C5.38021 17.6146 6.03646 17.9688 6.92188 17.9688ZM16.1975 26.7344C15.6246 26.7344 15.2027 26.6562 14.9319 26.5C14.661 26.3542 14.5256 26.1302 14.5256 25.8281V11.3594C14.5256 10.526 14.4996 9.875 14.4475 9.40625C14.4058 8.92708 14.3485 8.46875 14.2756 8.03125C14.2235 7.75 14.1975 7.55208 14.1975 7.4375C14.1975 7.22917 14.3902 7.0625 14.7756 6.9375C15.161 6.80208 15.5985 6.70312 16.0881 6.64062C16.5881 6.57812 16.9892 6.54688 17.2913 6.54688C17.6246 6.54688 17.8538 6.67188 17.9788 6.92188C18.1142 7.16146 18.234 7.51042 18.3381 7.96875L18.4163 8.32812C18.7392 7.71354 19.2288 7.21354 19.885 6.82812C20.5517 6.44271 21.3017 6.25 22.135 6.25C23.1454 6.25 24.0413 6.54167 24.8225 7.125C25.6038 7.70833 26.2131 8.56771 26.6506 9.70312C27.0985 10.8281 27.3225 12.1771 27.3225 13.75C27.3225 15.2604 27.0933 16.5781 26.635 17.7031C26.1767 18.8281 25.51 19.6979 24.635 20.3125C23.76 20.9271 22.7079 21.2344 21.4788 21.2344C20.4267 21.2344 19.4735 20.9427 18.6194 20.3594V25.8281C18.6194 26.1302 18.484 26.3542 18.2131 26.5C17.9527 26.6562 17.536 26.7344 16.9631 26.7344H16.1975ZM20.5725 17.9688C22.2913 17.9688 23.1506 16.5625 23.1506 13.75C23.1506 10.9896 22.4058 9.60938 20.9163 9.60938C20.0413 9.60938 19.2756 10.1562 18.6194 11.25V17.4375C19.2652 17.7917 19.9163 17.9688 20.5725 17.9688ZM32.4731 21.2344C31.1502 21.2344 30.1398 20.8646 29.4419 20.125C28.7544 19.375 28.4106 18.2396 28.4106 16.7188V9.71875H27.9731C27.6815 9.71875 27.4679 9.60938 27.3325 9.39062C27.2075 9.17188 27.145 8.81771 27.145 8.32812V7.85938C27.145 7.36979 27.2075 7.01562 27.3325 6.79688C27.4679 6.57812 27.6815 6.46875 27.9731 6.46875H28.4106L28.77 3.82812C28.8533 3.24479 29.3533 2.95312 30.27 2.95312H31.145C31.6242 2.95312 31.9731 3.02604 32.1919 3.17188C32.421 3.31771 32.5356 3.53646 32.5356 3.82812V6.46875H33.895C34.1867 6.46875 34.395 6.57812 34.52 6.79688C34.6554 7.01562 34.7231 7.36979 34.7231 7.85938V8.32812C34.7231 8.81771 34.6554 9.17188 34.52 9.39062C34.395 9.60938 34.1867 9.71875 33.895 9.71875H32.5356V16.7656C32.5356 17.1927 32.6085 17.5 32.7544 17.6875C32.9106 17.875 33.1658 17.9688 33.52 17.9688C33.6242 17.9688 33.7648 17.9531 33.9419 17.9219C34.119 17.8802 34.2283 17.8594 34.27 17.8594C34.4367 17.8594 34.5825 18 34.7075 18.2812C34.8429 18.5521 34.9471 18.8542 35.02 19.1875C35.1033 19.5208 35.145 19.7448 35.145 19.8594C35.145 20.776 34.2544 21.2344 32.4731 21.2344ZM36.8737 4.07812C36.2904 4.07812 35.8633 4.00521 35.5925 3.85938C35.3321 3.71354 35.2019 3.48958 35.2019 3.1875V0.953125C35.2019 0.651042 35.3373 0.427083 35.6081 0.28125C35.879 0.125 36.3008 0.046875 36.8737 0.046875H37.6394C38.2123 0.046875 38.6342 0.125 38.905 0.28125C39.1758 0.427083 39.3112 0.651042 39.3112 0.953125V3.1875C39.3112 3.48958 39.1758 3.71354 38.905 3.85938C38.6446 4.00521 38.2227 4.07812 37.6394 4.07812H36.8737ZM36.8737 21.0469C35.7592 21.0469 35.2019 20.7552 35.2019 20.1719V7.29688C35.2019 7.00521 35.3373 6.78646 35.6081 6.64062C35.879 6.49479 36.3008 6.42188 36.8737 6.42188H37.6394C38.2123 6.42188 38.6342 6.49479 38.905 6.64062C39.1758 6.78646 39.3112 7.00521 39.3112 7.29688V20.1719C39.3112 20.7552 38.754 21.0469 37.6394 21.0469H36.8737ZM42.0869 21.0469C40.9827 21.0469 40.4306 20.7552 40.4306 20.1719V11.3594C40.4306 10.026 40.3421 8.91667 40.165 8.03125C40.1129 7.75 40.0869 7.55208 40.0869 7.4375C40.0869 7.22917 40.2796 7.0625 40.665 6.9375C41.0608 6.80208 41.5035 6.70312 41.9931 6.64062C42.4931 6.57812 42.8942 6.54688 43.1963 6.54688C43.5192 6.54688 43.7431 6.66667 43.8681 6.90625C44.0035 7.14583 44.1233 7.49479 44.2275 7.95312L44.3213 8.35938C44.6754 7.71354 45.0817 7.20312 45.54 6.82812C46.0088 6.44271 46.6077 6.25 47.3369 6.25C47.941 6.25 48.3577 6.40625 48.5869 6.71875C48.816 7.02083 48.9306 7.36458 48.9306 7.75C48.9306 7.95833 48.8942 8.25521 48.8213 8.64062C48.7483 9.01562 48.6442 9.34896 48.5088 9.64062C48.3733 9.93229 48.2223 10.0781 48.0556 10.0781C47.941 10.0781 47.7692 10.0469 47.54 9.98438C47.2275 9.90104 46.9619 9.85938 46.7431 9.85938C46.2327 9.85938 45.7848 10.0052 45.3994 10.2969C45.0244 10.5781 44.7379 10.8958 44.54 11.25V20.1719C44.54 20.7552 43.9775 21.0469 42.8525 21.0469H42.0869ZM54.5344 21.2344C52.3365 21.2344 50.6594 20.5885 49.5031 19.2969C48.3573 18.0052 47.7844 16.1458 47.7844 13.7188C47.7844 11.3021 48.3573 9.45312 49.5031 8.17188C50.6594 6.89062 52.3365 6.25 54.5344 6.25C56.7323 6.25 58.399 6.89062 59.5344 8.17188C60.6802 9.44271 61.2531 11.2917 61.2531 13.7188C61.2531 16.1458 60.6802 18.0052 59.5344 19.2969C58.399 20.5885 56.7323 21.2344 54.5344 21.2344ZM54.5344 17.9688C55.4094 17.9688 56.05 17.6146 56.4562 16.9062C56.8729 16.1979 57.0812 15.1354 57.0812 13.7188C57.0812 12.3125 56.8729 11.2552 56.4562 10.5469C56.05 9.83854 55.4094 9.48438 54.5344 9.48438C52.8052 9.48438 51.9406 10.8958 51.9406 13.7188C51.9406 15.125 52.149 16.1875 52.5656 16.9062C52.9927 17.6146 53.649 17.9688 54.5344 17.9688Z" fill="#3C735B"/>
</svg>
